<svg width="548" height="128" viewBox="0 0 548 128" fill="none" xmlns="http://www.w3.org/2000/svg">
<g clip-path="url(#clip0_541_17)">
<path d="M104.55 3.66418H3.31238V110.295H104.55V3.66418Z" fill="#44A342"/>
<path d="M85.3985 103.465L73.1848 12.5947H32.5277L20.91 103.524L48.0831 103.348V96.6155H57.8541V103.455H85.3985V103.465ZM48.8159 79.0375L52.8513 40.8231L56.8965 79.0375H48.8159Z" fill="white"/>
<path d="M75.4419 84.9002V62.4269H62.7396V85.4962V94.6712H75.862H82.2815V84.9002H75.4419Z" fill="#9CA3AB"/>
<path d="M97.915 84.9002V62.4269H84.2357V85.4962V94.6712H97.6415H104.755V84.9002H97.915Z" fill="white"/>
<path d="M102.595 0H7.81679C4.03542 0 0 4.06473 0 7.87542V120.125C0 123.935 4.03542 128 7.81679 128H102.595C106.377 128 110.412 123.925 110.412 120.125V7.87542C110.412 4.06473 106.377 0 102.595 0ZM103.563 96.215C103.563 99.4785 100.934 102.126 97.7001 102.126H12.7121C9.47786 102.126 6.84947 99.4785 6.84947 96.215V12.5166C6.84947 9.25313 9.47786 6.60519 12.7121 6.60519H97.6904C100.925 6.60519 103.553 9.25313 103.553 12.5166V96.2052L103.563 96.215Z" fill="#231F20"/>
<path d="M21.8382 108.595V110.09H18.5453C18.5453 111.399 18.985 112.542 19.8742 113.5C20.5777 114.252 21.5353 114.878 22.7469 115.366L21.6037 116.558C20.7145 116.206 19.8937 115.806 19.1414 115.337C18.3206 114.829 17.705 114.321 17.2849 113.813C16.8843 114.311 16.2785 114.819 15.4577 115.337C14.7053 115.796 13.9041 116.206 13.0345 116.558L12.0085 115.366C13.1908 114.897 14.1191 114.272 14.7933 113.5C15.614 112.562 16.0244 111.419 16.0244 110.09H12.8977V108.595H21.8382ZM16.2394 120.017H26.4989V121.512H15.9463C15.1353 121.512 14.5588 121.395 14.207 121.16C13.8748 120.936 13.7087 120.555 13.7087 120.037V117.203H16.2296V120.007L16.2394 120.017ZM26.3817 118.053H23.851V113.021H21.0663V111.516H23.851V108.331H26.3817V118.063V118.053Z" fill="white"/>
<path d="M32.6644 109.552V108.253H35.1853V109.552H37.5792V111.038H35.1853V113.187C35.1853 114.79 35.4785 116.177 36.0745 117.359C36.563 118.346 37.2372 119.138 38.0873 119.734L36.5337 120.691C35.8888 120.242 35.3514 119.724 34.9508 119.138C34.4427 118.434 34.091 117.613 33.9053 116.685C33.6904 117.623 33.3191 118.454 32.7914 119.157C32.3322 119.753 31.7655 120.261 31.0717 120.701L29.694 119.743C30.5832 119.157 31.2769 118.376 31.7753 117.389C32.3713 116.236 32.6644 114.838 32.6644 113.197V111.047H30.3096V109.562H32.6644V109.552ZM36.3481 114.936V113.48H38.4098V108.321H40.9307V121.659H38.4098V114.926H36.3481V114.936ZM44.7804 121.668H42.2498V108.331H44.7804V121.668Z" fill="white"/>
<path d="M56.9062 110.08C57.6781 111.194 58.069 112.62 58.069 114.35C58.069 116.177 57.6781 117.672 56.9062 118.815C56.0856 120.066 54.9325 120.691 53.4571 120.691C51.9816 120.691 50.8091 120.066 49.9786 118.815C49.2165 117.672 48.8354 116.177 48.8354 114.35C48.8354 112.62 49.2165 111.194 49.9786 110.08C50.8189 108.859 51.9816 108.253 53.4571 108.253C54.9325 108.253 56.0757 108.868 56.9062 110.08ZM51.8742 111.077C51.542 111.917 51.3759 113.002 51.3759 114.34C51.3759 115.786 51.542 116.939 51.8742 117.819C52.2357 118.757 52.7633 119.235 53.4473 119.235C54.1313 119.235 54.6394 118.766 55.0009 117.819C55.3429 116.939 55.509 115.786 55.509 114.34C55.509 113.011 55.3331 111.917 55.0009 111.077C54.6198 110.158 54.102 109.709 53.4473 109.709C52.7926 109.709 52.2552 110.168 51.8742 111.077ZM62.681 121.659H60.1502V108.321H62.681V121.659Z" fill="white"/>
<path d="M68.0256 112.132C67.6934 111.78 67.5273 111.409 67.5273 111.008C67.5273 110.236 68.0745 109.601 69.1688 109.074C70.3706 108.517 72.0317 108.243 74.1325 108.243C76.2332 108.243 77.8845 108.517 79.0961 109.074C80.2003 109.591 80.7572 110.236 80.7572 111.008C80.7572 111.399 80.5813 111.78 80.2491 112.132C79.8876 112.493 79.3697 112.806 78.7151 113.07V114.496H81.5291V116.011H66.7456V114.496H69.5303V113.07C68.8659 112.806 68.3676 112.484 68.0256 112.132ZM78.9007 117.613C79.9755 118.102 80.5032 118.708 80.5032 119.431C80.5032 120.154 79.9658 120.73 78.9007 121.219C77.7184 121.766 76.1258 122.04 74.1227 122.04C72.1197 122.04 70.5074 121.766 69.3251 121.219C68.2699 120.73 67.7423 120.134 67.7423 119.431C67.7423 118.727 68.2699 118.102 69.3251 117.613C70.5074 117.066 72.1099 116.793 74.1227 116.793C76.1355 116.793 77.7184 117.066 78.9007 117.613ZM71.1328 110.148C70.4684 110.373 70.1459 110.656 70.1459 111.008C70.1459 111.36 70.4781 111.634 71.1328 111.849C71.8461 112.093 72.8427 112.21 74.1032 112.21C75.3636 112.21 76.3603 112.093 77.0931 111.849C77.7477 111.624 78.08 111.34 78.08 111.008C78.08 110.676 77.7477 110.373 77.0931 110.148C76.3603 109.914 75.3734 109.797 74.1032 109.797C72.8329 109.797 71.8461 109.914 71.1328 110.148ZM71.2207 118.669C70.5856 118.874 70.2632 119.118 70.2632 119.421C70.2632 119.724 70.5758 119.968 71.2207 120.173C71.934 120.398 72.9111 120.515 74.1422 120.515C75.3734 120.515 76.2919 120.398 76.9954 120.173C77.6403 119.968 77.9725 119.724 77.9725 119.421C77.9725 119.118 77.65 118.874 76.9954 118.669C76.2919 118.444 75.3441 118.336 74.1422 118.336C72.9404 118.336 71.9438 118.444 71.2207 118.669ZM76.1844 114.506V113.646C75.8913 113.685 75.559 113.715 75.2073 113.744C74.8848 113.764 74.5331 113.773 74.1325 113.773C73.7319 113.773 73.3606 113.773 73.0381 113.744C72.6766 113.715 72.3444 113.685 72.0513 113.646V114.506H76.1844Z" fill="white"/>
<path d="M93.0688 108.595V112.728C93.0688 114.702 92.4337 116.363 91.1537 117.701C89.9714 118.933 88.2125 119.919 85.8773 120.682L84.8708 119.548C86.5808 118.952 87.9 118.2 88.8477 117.281C89.9909 116.177 90.5577 114.858 90.5577 113.304V110.1H85.2812V108.585H93.0688V108.595ZM98.736 108.321V113.725H100.465V115.249H98.736V121.659H96.2053V108.321H98.736Z" fill="white"/>
</g>
<rect x="121" width="427" height="128" rx="7" fill="#44A342"/>
<path d="M151.928 9.90608V31.0718H149.459V9.90608H151.928ZM133.331 25.0718C136.39 23.1989 137.732 19.3785 137.732 15.6906V14.2818H134.052V12.1768H143.666V14.2818H140.243V15.6906C140.235 19.2624 141.519 22.8508 144.552 24.5912L143.019 26.5055C141.055 25.3453 139.746 23.3315 139.017 20.9199C138.271 23.5304 136.92 25.7597 134.923 26.9945L133.331 25.0718ZM142.124 19.395V17.2901H145.174V10.3039H147.619V30.0525H145.174V19.395H142.124ZM172.19 9.90608V22.3536H169.587V19.4365H165.311V21.0773H155.366V11.4807H165.311V13.1215H169.587V9.90608H172.19ZM157.811 27.0028C157.803 24.4254 160.546 22.9254 165.021 22.9254C169.505 22.9254 172.248 24.4254 172.248 27.0028C172.248 29.5884 169.505 31.0635 165.021 31.0552C160.546 31.0635 157.803 29.5884 157.811 27.0028ZM157.952 18.9889H162.75V13.5525H157.952V18.9889ZM160.405 27.0028C160.389 28.3204 162.071 29.0497 165.021 29.0497C167.98 29.0497 169.654 28.3204 169.662 27.0028C169.654 25.6354 167.98 24.9309 165.021 24.9227C162.071 24.9309 160.389 25.6354 160.405 27.0028ZM165.311 17.3232H169.587V15.1934H165.311V17.3232ZM177.758 29.1823C176.755 29.1823 175.926 28.3702 175.943 27.3674C175.926 26.3729 176.755 25.5691 177.758 25.5691C178.736 25.5691 179.564 26.3729 179.573 27.3674C179.564 28.3702 178.736 29.1823 177.758 29.1823ZM175.951 18.268C175.935 17.2735 176.763 16.4696 177.766 16.4696C178.744 16.4696 179.573 17.2735 179.581 18.268C179.573 19.2707 178.744 20.0829 177.766 20.0829C176.763 20.0829 175.935 19.2707 175.951 18.268ZM195.934 12.0028V13.0552C195.918 15.1602 195.951 18.4088 194.434 23.9448L191.849 23.5387C193.1 19.3039 193.299 16.2044 193.332 14.1077H188.849V12.0028H195.934ZM187.423 28.0552V25.9171H206.724V28.0552H187.423ZM197.351 14.1077V12.0028H204.677V13.5525C204.677 15.8481 204.702 19.0221 203.782 23.9033L201.155 23.6381C202.009 19.3867 202.075 16.3204 202.092 14.1077H197.351ZM227.508 22.5442V24.674H219.088V31.0718H216.502V24.674H208.14V22.5442H227.508ZM210.627 20.779V10.8094H225.179V12.8729H213.196V14.7376H224.707V16.768H213.196V18.7155H225.411V20.779H210.627ZM246.559 9.90608V31.1215H243.966V9.90608H246.559ZM230.059 13.8591V11.7459H240.037V19.6934H232.761V23.953C236.093 23.9365 238.968 23.7707 242.275 23.2155L242.507 25.3453C238.902 25.9669 235.736 26.0994 231.932 26.0994H230.076V17.6215H237.385V13.8591H230.059ZM259.288 11.0912C263.829 11.0994 267.186 13.3702 267.186 16.8011C267.186 19.9917 264.459 22.105 260.581 22.4862V26.3729H269.017V28.511H249.65V26.3729H257.995V22.4862C254.141 22.105 251.415 19.9834 251.423 16.8011C251.415 13.3702 254.771 11.0994 259.288 11.0912ZM253.976 16.8011C253.976 19.105 256.18 20.4641 259.288 20.4724C262.42 20.4641 264.625 19.105 264.625 16.8011C264.625 14.5967 262.42 13.1878 259.288 13.1961C256.18 13.1878 253.976 14.5967 253.976 16.8011ZM285.473 9.64088V31.3867H284.072V9.64088H285.473ZM318.191 9.92265V25.4033H315.581V9.92265H318.191ZM300.573 20.4061C304.012 19.1878 305.769 16.1961 305.769 13.163V11.0912H308.462V13.163C308.445 16.1133 310.178 18.8978 313.542 20.0249L312.208 22.0884C309.788 21.2431 308.073 19.5525 307.128 17.3978C306.183 19.7099 304.434 21.5663 301.948 22.4613L300.573 20.4061ZM304.178 30.674V23.9199H306.805V28.5608H318.788V30.674H304.178ZM328.906 14.4144C328.906 16.7431 330.721 19.0304 334.061 19.9171L332.826 21.9392C330.389 21.2845 328.632 19.8591 327.655 18.0276C326.735 20.0994 324.978 21.7403 322.458 22.4945L321.224 20.4558C324.539 19.4613 326.312 16.9751 326.312 14.4144V14.3066H321.878V12.2348H326.312V9.81492H328.939V12.2348H333.331V14.3066H328.906V14.4144ZM324.663 27.0691C324.655 24.558 327.406 23.1409 331.873 23.1326C336.348 23.1409 339.099 24.558 339.099 27.0691C339.099 29.5967 336.348 31.0635 331.873 31.0552C327.406 31.0635 324.655 29.5967 324.663 27.0691ZM327.257 27.0691C327.24 28.337 328.922 29.0497 331.873 29.0497C334.864 29.0497 336.505 28.337 336.514 27.0691C336.505 25.8177 334.864 25.1464 331.873 25.1381C328.922 25.1464 327.24 25.8177 327.257 27.0691ZM332.701 17.8204V15.7155H336.439V9.90608H339.041V22.7182H336.439V17.8204H332.701ZM349.64 15.9144C349.623 19.1961 351.587 22.9171 354.927 24.4751L353.469 26.5304C351.082 25.4199 349.317 23.1409 348.364 20.489C347.402 23.3978 345.554 25.884 343.126 27.0608L341.593 25.0055C344.966 23.4144 347.021 19.4448 347.029 15.9144V14.1326H342.413V11.9945H354.065V14.1326H349.64V15.9144ZM356.021 31.0718V9.90608H358.632V18.1436H361.897V20.3315H358.632V31.0718H356.021ZM365.352 23.3812C364.349 23.3812 363.52 22.5691 363.537 21.5663C363.52 20.5718 364.349 19.768 365.352 19.768C366.33 19.768 367.158 20.5718 367.167 21.5663C367.158 22.5691 366.33 23.3812 365.352 23.3812ZM376.822 13.2707C376.822 15.9392 378.545 18.4586 381.802 19.4945L380.41 21.5249C378.123 20.7541 376.474 19.2044 375.562 17.2403C374.642 19.4862 372.935 21.2514 370.49 22.1215L369.081 20.0663C372.496 18.8812 374.203 16.0635 374.219 13.0304V11.0249H376.822V13.2707ZM371.974 27.0359C371.965 24.5166 374.717 23.0331 379.142 23.0414C383.518 23.0331 386.228 24.5166 386.228 27.0359C386.228 29.5967 383.518 31.0635 379.142 31.0552C374.717 31.0635 371.965 29.5967 371.974 27.0359ZM374.576 27.0359C374.567 28.337 376.233 29 379.142 29.0083C382.043 29 383.667 28.337 383.667 27.0359C383.667 25.7928 382.043 25.0801 379.142 25.0801C376.233 25.0801 374.567 25.7928 374.576 27.0359ZM383.418 22.5691V9.90608H386.037V15.0442H388.996V17.2155H386.037V22.5691H383.418ZM408.445 12.732V14.837H390.934V12.732H398.401V10.1713H400.986V12.732H408.445ZM390.064 28.8094V26.6961H398.401V24.0939C394.746 23.8122 392.533 22.337 392.55 20C392.533 17.4392 395.277 15.9227 399.685 15.9309C404.053 15.9227 406.829 17.4392 406.829 20C406.829 22.337 404.6 23.8039 400.986 24.0939V26.6961H409.431V28.8094H390.064ZM395.218 20C395.202 21.3591 396.818 22.047 399.685 22.0552C402.52 22.047 404.152 21.3591 404.152 20C404.152 18.6657 402.52 17.9696 399.685 17.9696C396.818 17.9696 395.202 18.6657 395.218 20ZM413.375 29.1823C412.372 29.1823 411.544 28.3702 411.56 27.3674C411.544 26.3729 412.372 25.5691 413.375 25.5691C414.353 25.5691 415.182 26.3729 415.19 27.3674C415.182 28.3702 414.353 29.1823 413.375 29.1823ZM411.568 18.268C411.552 17.2735 412.381 16.4696 413.383 16.4696C414.361 16.4696 415.19 17.2735 415.198 18.268C415.19 19.2707 414.361 20.0829 413.383 20.0829C412.381 20.0829 411.552 19.2707 411.568 18.268ZM442.383 22.4033V24.4503H437.717V31.0718H435.09V24.4503H430.333V31.0718H427.723V24.4503H423.015V22.4033H442.383ZM425.286 12.7238V10.6105H440.12V16.5193H427.971V18.5414H440.601V20.6547H425.336V14.5884H437.452V12.7238H425.286ZM461.526 9.92265V26.058H458.923V21.8812H455.791V19.8011H458.923V17.4309H455.791V15.3177H458.923V9.92265H461.526ZM443.824 14.3398V12.268H448.564V9.8895H451.158V12.268H455.65V14.3398H443.824ZM444.934 19.3453C444.918 16.9171 446.973 15.2265 449.841 15.2265C452.716 15.2265 454.78 16.9171 454.796 19.3453C454.78 21.7818 452.716 23.4641 449.841 23.4641C446.973 23.4641 444.918 21.7818 444.934 19.3453ZM447.363 19.3453C447.354 20.6713 448.374 21.4503 449.841 21.4503C451.291 21.4503 452.327 20.6713 452.343 19.3453C452.327 18.0525 451.291 17.2735 449.841 17.2569C448.374 17.2735 447.354 18.0525 447.363 19.3453ZM447.562 30.674V24.6657H450.197V28.5608H461.99V30.674H447.562ZM474.163 11.0912C478.704 11.0994 482.061 13.3702 482.061 16.8011C482.061 19.9917 479.334 22.105 475.456 22.4862V26.3729H483.892V28.511H464.525V26.3729H472.87V22.4862C469.016 22.105 466.29 19.9834 466.298 16.8011C466.29 13.3702 469.646 11.0994 474.163 11.0912ZM468.851 16.8011C468.851 19.105 471.055 20.4641 474.163 20.4724C477.295 20.4641 479.5 19.105 479.5 16.8011C479.5 14.5967 477.295 13.1878 474.163 13.1961C471.055 13.1878 468.851 14.5967 468.851 16.8011ZM151.331 38.9061V60.1215H148.704V38.9061H151.331ZM134.384 47.9227C134.376 43.3481 136.704 40.4475 139.92 40.4392C143.094 40.4475 145.431 43.3481 145.431 47.9227C145.431 52.5304 143.094 55.4309 139.92 55.4227C136.704 55.4309 134.376 52.5304 134.384 47.9227ZM136.895 47.9227C136.895 51.1796 138.113 53.0691 139.92 53.0691C141.693 53.0691 142.912 51.1796 142.912 47.9227C142.912 44.6906 141.693 42.7928 139.92 42.7928C138.113 42.7928 136.895 44.6906 136.895 47.9227ZM173.748 49.0912V51.1796H154.447V49.0912H158.938V46.3978C157.347 45.7182 156.444 44.6575 156.452 43.2735C156.444 40.7459 159.402 39.2541 164.085 39.2459C168.75 39.2541 171.709 40.7459 171.709 43.2735C171.709 44.6657 170.797 45.7348 169.181 46.4144V49.0912H173.748ZM156.692 56.2348C156.692 53.7983 159.452 52.4475 164.068 52.4558C168.634 52.4475 171.402 53.7983 171.411 56.2348C171.402 58.7044 168.634 60.047 164.068 60.0387C159.452 60.047 156.692 58.7044 156.692 56.2348ZM159.154 43.2735C159.137 44.5746 160.952 45.2624 164.085 45.2624C167.201 45.2624 169.032 44.5746 169.032 43.2735C169.032 41.9807 167.201 41.2597 164.085 41.2597C160.952 41.2597 159.137 41.9807 159.154 43.2735ZM159.344 56.2348C159.328 57.4365 160.994 58.0829 164.068 58.0663C167.11 58.0829 168.792 57.4365 168.808 56.2348C168.792 55.058 167.11 54.4448 164.068 54.4282C160.994 54.4448 159.328 55.058 159.344 56.2348ZM161.565 49.0912H166.587V47.0773C165.825 47.1768 164.988 47.2348 164.085 47.2348C163.173 47.2348 162.336 47.1768 161.565 47.0773V49.0912ZM194.523 48.7182V50.8481H175.189V48.7182H194.523ZM177.435 56.1768C177.435 53.7072 180.211 52.3149 184.81 52.3149C189.393 52.3149 192.145 53.7072 192.153 56.1768C192.145 58.663 189.393 60.0635 184.81 60.0552C180.211 60.0635 177.435 58.663 177.435 56.1768ZM177.567 47.0608V39.5691H192.178V41.6823H180.153V44.9641H192.294V47.0608H177.567ZM180.087 56.1768C180.07 57.4199 181.736 58.0497 184.81 58.0497C187.852 58.0497 189.534 57.4199 189.551 56.1768C189.534 54.9751 187.852 54.3204 184.81 54.3122C181.736 54.3204 180.07 54.9751 180.087 56.1768ZM200.878 50.9724V53.4088H210.285V50.9724H212.862V59.8232H198.318V50.9724H200.878ZM195.931 49.4061V47.3177H209.82C210.276 45.0801 210.318 43.3978 210.326 41.9061H198.326V39.8011H212.928V41.4503C212.928 43.0663 212.928 44.8315 212.398 47.3177H215.298V49.4061H195.931ZM200.878 57.7099H210.285V55.4227H200.878V57.7099ZM219.242 58.1823C218.239 58.1823 217.411 57.3702 217.427 56.3674C217.411 55.3729 218.239 54.5691 219.242 54.5691C220.22 54.5691 221.049 55.3729 221.057 56.3674C221.049 57.3702 220.22 58.1823 219.242 58.1823ZM217.436 47.268C217.419 46.2735 218.248 45.4696 219.251 45.4696C220.228 45.4696 221.057 46.2735 221.065 47.268C221.057 48.2707 220.228 49.0829 219.251 49.0829C218.248 49.0829 217.419 48.2707 217.436 47.268ZM246.651 38.9227V54.4033H244.048V46.6381H240.294V44.5331H244.048V38.9227H246.651ZM228.858 49.8122C232.231 48.7099 234.037 45.942 234.037 43.1243V42.5525H229.62V40.4475H241.073V42.5525H236.689V43.1409C236.689 45.6851 238.396 48.3204 241.67 49.4061L240.369 51.4696C237.999 50.674 236.325 49.0497 235.405 47.0525C234.468 49.2735 232.711 51.0635 230.2 51.9254L228.858 49.8122ZM232.753 59.674V53.0359H235.355V57.5608H247.181V59.674H232.753ZM256.122 45.3702C256.122 48.6519 257.465 51.9503 260.432 53.5497L258.981 55.4641C257.001 54.4282 255.666 52.5635 254.912 50.3343C254.166 52.7376 252.832 54.7928 250.843 55.9613L249.327 53.9972C252.327 52.2569 253.644 48.7182 253.661 45.3702V44.7072H250.048V42.6022H253.661V39.6519H256.114V42.6022H259.661V44.7072H256.122V45.3702ZM258.343 49.1906V47.0442H261.119V39.3039H263.564V59.0525H261.119V49.1906H258.343ZM265.404 60.0718V38.9061H267.873V60.0718H265.404ZM288.019 38.9061V60.1215H285.392V38.9061H288.019ZM271.071 47.9227C271.063 43.3481 273.392 40.4475 276.607 40.4392C279.781 40.4475 282.118 43.3481 282.118 47.9227C282.118 52.5304 279.781 55.4309 276.607 55.4227C273.392 55.4309 271.063 52.5304 271.071 47.9227ZM273.583 47.9227C273.583 51.1796 274.801 53.0691 276.607 53.0691C278.381 53.0691 279.599 51.1796 279.599 47.9227C279.599 44.6906 278.381 42.7928 276.607 42.7928C274.801 42.7928 273.583 44.6906 273.583 47.9227ZM310.435 49.0912V51.1796H291.134V49.0912H295.626V46.3978C294.035 45.7182 293.131 44.6575 293.14 43.2735C293.131 40.7459 296.09 39.2541 300.772 39.2459C305.438 39.2541 308.397 40.7459 308.397 43.2735C308.397 44.6657 307.485 45.7348 305.869 46.4144V49.0912H310.435ZM293.38 56.2348C293.38 53.7983 296.14 52.4475 300.756 52.4558C305.322 52.4475 308.09 53.7983 308.098 56.2348C308.09 58.7044 305.322 60.047 300.756 60.0387C296.14 60.047 293.38 58.7044 293.38 56.2348ZM295.841 43.2735C295.825 44.5746 297.64 45.2624 300.772 45.2624C303.888 45.2624 305.72 44.5746 305.72 43.2735C305.72 41.9807 303.888 41.2597 300.772 41.2597C297.64 41.2597 295.825 41.9807 295.841 43.2735ZM296.032 56.2348C296.015 57.4365 297.681 58.0829 300.756 58.0663C303.797 58.0829 305.479 57.4365 305.496 56.2348C305.479 55.058 303.797 54.4448 300.756 54.4282C297.681 54.4448 296.015 55.058 296.032 56.2348ZM298.253 49.0912H303.275V47.0773C302.513 47.1768 301.676 47.2348 300.772 47.2348C299.861 47.2348 299.024 47.1768 298.253 47.0773V49.0912ZM328.467 38.9061V47.1768H331.608V49.3398H328.467V60.0387H325.857V38.9061H328.467ZM311.769 54.2541C316.923 51.6685 319.708 48.0718 320.222 43.2486H312.896V41.1022H322.874C322.857 47.326 320.28 52.7956 313.235 56.2597L311.769 54.2541ZM153.039 77.7182V79.8481H133.704V77.7182H153.039ZM135.95 85.1768C135.95 82.7072 138.727 81.3149 143.326 81.3149C147.909 81.3149 150.66 82.7072 150.669 85.1768C150.66 87.663 147.909 89.0635 143.326 89.0552C138.727 89.0635 135.95 87.663 135.95 85.1768ZM136.083 76.0608V68.5691H150.693V70.6823H138.669V73.9641H150.809V76.0608H136.083ZM138.602 85.1768C138.586 86.4199 140.251 87.0497 143.326 87.0497C146.367 87.0497 148.05 86.4199 148.066 85.1768C148.05 83.9751 146.367 83.3204 143.326 83.3122C140.251 83.3204 138.586 83.9751 138.602 85.1768ZM159.394 79.9724V82.4088H168.8V79.9724H171.378V88.8232H156.833V79.9724H159.394ZM154.447 78.4061V76.3177H168.336C168.792 74.0801 168.833 72.3978 168.842 70.9061H156.842V68.8011H171.444V70.4503C171.444 72.0663 171.444 73.8315 170.913 76.3177H173.814V78.4061H154.447ZM159.394 86.7099H168.8V84.4227H159.394V86.7099ZM194.531 78.8785V80.9503H186.352V84.5967H183.774V80.9503H175.164V78.8785H194.531ZM177.509 88.674V82.8398H180.095V86.5608H192.393V88.674H177.509ZM177.683 77.1961V68.5773H180.261V70.9641H189.41V68.5773H192.004V77.1961H177.683ZM180.261 75.1326H189.41V72.9116H180.261V75.1326ZM215.274 80.4033V82.4503H210.608V89.0718H207.981V82.4503H203.224V89.0718H200.613V82.4503H195.906V80.4033H215.274ZM198.177 70.7238V68.6105H213.011V74.5193H200.862V76.5414H213.492V78.6547H198.227V72.5884H210.343V70.7238H198.177ZM234.416 67.9227V83.5525H231.814V75.7541H227.554V80.1215H217.626V69.3149H220.245V72.7293H224.977V69.3149H227.554V73.6492H231.814V67.9227H234.416ZM220.245 78.0497H224.977V74.7348H220.245V78.0497ZM220.452 88.674V82.011H223.088V86.5608H234.88V88.674H220.452ZM255.797 70.732V72.837H238.286V70.732H245.752V68.1713H248.338V70.732H255.797ZM237.415 86.8094V84.6961H245.752V82.0939C242.098 81.8122 239.885 80.337 239.902 78C239.885 75.4392 242.628 73.9227 247.037 73.9309C251.404 73.9227 254.181 75.4392 254.181 78C254.181 80.337 251.951 81.8039 248.338 82.0939V84.6961H256.783V86.8094H237.415ZM242.57 78C242.553 79.3591 244.17 80.047 247.037 80.0552C249.871 80.047 251.504 79.3591 251.504 78C251.504 76.6657 249.871 75.9696 247.037 75.9696C244.17 75.9696 242.553 76.6657 242.57 78ZM260.727 87.1823C259.724 87.1823 258.895 86.3702 258.912 85.3674C258.895 84.3729 259.724 83.5691 260.727 83.5691C261.705 83.5691 262.533 84.3729 262.542 85.3674C262.533 86.3702 261.705 87.1823 260.727 87.1823ZM258.92 76.268C258.903 75.2735 259.732 74.4696 260.735 74.4696C261.713 74.4696 262.542 75.2735 262.55 76.268C262.542 77.2707 261.713 78.0829 260.735 78.0829C259.732 78.0829 258.903 77.2707 258.92 76.268ZM288.616 67.9061V89.0718H286.146V67.9061H288.616ZM270.019 83.0718C273.077 81.1989 274.42 77.3785 274.42 73.6906V72.2818H270.74V70.1768H280.353V72.2818H276.931V73.6906C276.922 77.2624 278.207 80.8508 281.24 82.5912L279.707 84.5055C277.743 83.3453 276.433 81.3315 275.704 78.9199C274.958 81.5304 273.607 83.7597 271.61 84.9945L270.019 83.0718ZM278.812 77.395V75.2901H281.862V68.3039H284.306V88.0525H281.862V77.395H278.812ZM309.119 75.7541C308.771 73.7155 307.147 72.5387 305.084 72.5387C302.299 72.5387 300.335 74.6768 300.335 78.5138C300.335 82.4171 302.316 84.489 305.067 84.489C307.097 84.489 308.722 83.3619 309.119 81.3729L312.211 81.3895C311.738 84.6298 309.053 87.232 305.034 87.232C300.55 87.232 297.269 83.9834 297.269 78.5138C297.269 73.0276 300.592 69.7956 305.034 69.7956C308.78 69.7956 311.68 71.9751 312.211 75.7541H309.119ZM326.252 75.7541C325.904 73.7155 324.28 72.5387 322.216 72.5387C319.432 72.5387 317.468 74.6768 317.468 78.5138C317.468 82.4171 319.448 84.489 322.2 84.489C324.23 84.489 325.854 83.3619 326.252 81.3729L329.343 81.3895C328.871 84.6298 326.186 87.232 322.167 87.232C317.683 87.232 314.401 83.9834 314.401 78.5138C314.401 73.0276 317.725 69.7956 322.167 69.7956C325.913 69.7956 328.813 71.9751 329.343 75.7541H326.252ZM339.532 77.279V79.7403H331.899V77.279H339.532ZM356.545 70.0276V87H353.835L345.796 75.4061H345.656V87H342.614V70.0276H345.357L353.363 81.6298H353.512V70.0276H356.545ZM359.7 87V70.0276H366.048C369.951 70.0276 372.032 72.4061 372.032 75.6464C372.032 78.9033 369.927 81.2569 366.007 81.2569H362.741V87H359.7ZM362.741 78.7459H365.601C367.888 78.7459 368.916 77.453 368.916 75.6464C368.916 73.8398 367.888 72.5801 365.584 72.5801H362.741V78.7459ZM381.414 77.279V79.7403H373.782V77.279H381.414ZM383.745 87L383.737 84.7873L389.729 79.011C391.444 77.2956 392.339 76.2845 392.347 74.8674C392.339 73.2762 391.088 72.2818 389.422 72.2818C387.682 72.2818 386.555 73.3757 386.563 75.0994H383.662C383.646 71.884 386.057 69.7956 389.463 69.7956C392.919 69.7956 395.256 71.8674 395.265 74.7099C395.256 76.6326 394.336 78.1823 390.997 81.3315L387.988 84.3232V84.4475H395.521V87H383.745ZM405.085 70.0276V87H402.018V73.0028H401.919L397.949 75.5387V72.7459L402.159 70.0276H405.085ZM415.47 87.3232C411.377 87.3149 408.94 84.0912 408.948 78.5304C408.948 72.9862 411.401 69.7956 415.47 69.7956C419.531 69.7956 421.993 72.9945 421.993 78.5304C421.984 84.1077 419.556 87.3232 415.47 87.3232ZM412.023 78.5304C412.023 82.6077 413.341 84.7376 415.47 84.7376C417.592 84.7376 418.91 82.6077 418.91 78.5304C418.901 74.4779 417.584 72.3398 415.47 72.3398C413.349 72.3398 412.031 74.4779 412.023 78.5304ZM431.428 70.0276V87H428.362V73.0028H428.263L424.293 75.5387V72.7459L428.503 70.0276H431.428ZM435.566 87L435.557 84.7873L441.549 79.011C443.264 77.2956 444.159 76.2845 444.168 74.8674C444.159 73.2762 442.908 72.2818 441.242 72.2818C439.502 72.2818 438.375 73.3757 438.383 75.0994H435.483C435.466 71.884 437.878 69.7956 441.284 69.7956C444.74 69.7956 447.077 71.8674 447.085 74.7099C447.077 76.6326 446.157 78.1823 442.817 81.3315L439.809 84.3232V84.4475H447.342V87H435.566ZM456.905 70.0276V87H453.839V73.0028H453.739L449.77 75.5387V72.7459L453.98 70.0276H456.905ZM468.766 77.279V79.7403H461.133V77.279H468.766ZM477.931 87.3232C473.837 87.3149 471.401 84.0912 471.409 78.5304C471.409 72.9862 473.862 69.7956 477.931 69.7956C481.992 69.7956 484.453 72.9945 484.453 78.5304C484.445 84.1077 482.017 87.3232 477.931 87.3232ZM474.484 78.5304C474.484 82.6077 475.802 84.7376 477.931 84.7376C480.053 84.7376 481.371 82.6077 481.371 78.5304C481.362 74.4779 480.045 72.3398 477.931 72.3398C475.81 72.3398 474.492 74.4779 474.484 78.5304ZM493.259 87.3232C489.166 87.3149 486.729 84.0912 486.737 78.5304C486.737 72.9862 489.19 69.7956 493.259 69.7956C497.32 69.7956 499.782 72.9945 499.782 78.5304C499.773 84.1077 497.345 87.3232 493.259 87.3232ZM489.812 78.5304C489.812 82.6077 491.13 84.7376 493.259 84.7376C495.381 84.7376 496.699 82.6077 496.699 78.5304C496.69 74.4779 495.373 72.3398 493.259 72.3398C491.138 72.3398 489.82 74.4779 489.812 78.5304ZM508.347 87.232C504.966 87.232 502.463 85.2099 502.372 82.3923H505.339C505.447 83.7762 506.748 84.7624 508.347 84.7624C510.253 84.7624 511.612 83.395 511.612 81.5055C511.612 79.5746 510.212 78.1989 508.256 78.1823C506.938 78.174 505.977 78.6381 505.438 79.6326H502.621L503.632 70.0276H513.659V72.5801H506.151L505.637 77.0884H505.787C506.449 76.3425 507.684 75.8039 509.085 75.8039C512.234 75.8039 514.571 78.1575 514.571 81.4227C514.571 84.8122 512.019 87.232 508.347 87.232ZM534.82 70.732V72.837H517.309V70.732H524.776V68.1713H527.361V70.732H534.82ZM516.439 86.8094V84.6961H524.776V82.0939C521.121 81.8122 518.908 80.337 518.925 78C518.908 75.4392 521.652 73.9227 526.06 73.9309C530.428 73.9227 533.204 75.4392 533.204 78C533.204 80.337 530.975 81.8039 527.361 82.0939V84.6961H535.806V86.8094H516.439ZM521.593 78C521.577 79.3591 523.193 80.047 526.06 80.0552C528.895 80.047 530.527 79.3591 530.527 78C530.527 76.6657 528.895 75.9696 526.06 75.9696C523.193 75.9696 521.577 76.6657 521.593 78ZM153.039 106.718V108.848H133.704V106.718H153.039ZM135.95 114.177C135.95 111.707 138.727 110.315 143.326 110.315C147.909 110.315 150.66 111.707 150.669 114.177C150.66 116.663 147.909 118.064 143.326 118.055C138.727 118.064 135.95 116.663 135.95 114.177ZM136.083 105.061V97.5691H150.693V99.6823H138.669V102.964H150.809V105.061H136.083ZM138.602 114.177C138.586 115.42 140.251 116.05 143.326 116.05C146.367 116.05 148.05 115.42 148.066 114.177C148.05 112.975 146.367 112.32 143.326 112.312C140.251 112.32 138.586 112.975 138.602 114.177ZM159.394 108.972V111.409H168.8V108.972H171.378V117.823H156.833V108.972H159.394ZM154.447 107.406V105.318H168.336C168.792 103.08 168.833 101.398 168.842 99.9061H156.842V97.8011H171.444V99.4503C171.444 101.066 171.444 102.831 170.913 105.318H173.814V107.406H154.447ZM159.394 115.71H168.8V113.423H159.394V115.71ZM194.531 107.878V109.95H186.352V113.597H183.774V109.95H175.164V107.878H194.531ZM177.509 117.674V111.84H180.095V115.561H192.393V117.674H177.509ZM177.683 106.196V97.5773H180.261V99.9641H189.41V97.5773H192.004V106.196H177.683ZM180.261 104.133H189.41V101.912H180.261V104.133ZM215.274 109.403V111.45H210.608V118.072H207.981V111.45H203.224V118.072H200.613V111.45H195.906V109.403H215.274ZM198.177 99.7238V97.6105H213.011V103.519H200.862V105.541H213.492V107.655H198.227V101.588H210.343V99.7238H198.177ZM228.377 97.5773C231.584 97.5856 233.971 99.5746 233.979 102.367C233.971 105.16 231.584 107.133 228.377 107.141C225.136 107.133 222.741 105.16 222.75 102.367C222.741 99.5746 225.136 97.5856 228.377 97.5773ZM225.286 102.367C225.269 104 226.587 105.028 228.377 105.028C230.15 105.028 231.451 104 231.451 102.367C231.451 100.751 230.15 99.7238 228.377 99.732C226.587 99.7238 225.269 100.751 225.286 102.367ZM225.94 110.555V108.525H240.004V114.061H228.543V115.76H240.642V117.823H226.007V112.138H237.41V110.555H225.94ZM237.393 107.597V96.9061H240.004V107.597H237.393ZM250.71 102.914C250.694 106.196 252.658 109.917 255.997 111.475L254.539 113.53C252.152 112.42 250.387 110.141 249.434 107.489C248.473 110.398 246.624 112.884 244.196 114.061L242.663 112.006C246.036 110.414 248.091 106.445 248.1 102.914V101.133H243.484V98.9945H255.136V101.133H250.71V102.914ZM257.091 118.072V96.9061H259.702V105.144H262.967V107.331H259.702V118.072H257.091ZM266.422 116.182C265.419 116.182 264.59 115.37 264.607 114.367C264.59 113.373 265.419 112.569 266.422 112.569C267.4 112.569 268.229 113.373 268.237 114.367C268.229 115.37 267.4 116.182 266.422 116.182ZM264.615 105.268C264.599 104.273 265.427 103.47 266.43 103.47C267.408 103.47 268.237 104.273 268.245 105.268C268.237 106.271 267.408 107.083 266.43 107.083C265.427 107.083 264.599 106.271 264.615 105.268ZM276.8 116L276.792 113.787L282.783 108.011C284.499 106.296 285.394 105.285 285.402 103.867C285.394 102.276 284.142 101.282 282.477 101.282C280.736 101.282 279.609 102.376 279.618 104.099H276.717C276.7 100.884 279.112 98.7956 282.518 98.7956C285.974 98.7956 288.311 100.867 288.319 103.71C288.311 105.633 287.391 107.182 284.051 110.331L281.043 113.323V113.448H288.576V116H276.8ZM297.509 116.323C293.416 116.315 290.979 113.091 290.987 107.53C290.987 101.986 293.44 98.7956 297.509 98.7956C301.57 98.7956 304.032 101.994 304.032 107.53C304.023 113.108 301.595 116.323 297.509 116.323ZM294.062 107.53C294.062 111.608 295.38 113.738 297.509 113.738C299.631 113.738 300.949 111.608 300.949 107.53C300.94 103.478 299.623 101.34 297.509 101.34C295.388 101.34 294.07 103.478 294.062 107.53ZM306.589 116L306.581 113.787L312.572 108.011C314.288 106.296 315.183 105.285 315.191 103.867C315.183 102.276 313.932 101.282 312.266 101.282C310.525 101.282 309.398 102.376 309.407 104.099H306.506C306.49 100.884 308.901 98.7956 312.307 98.7956C315.763 98.7956 318.1 100.867 318.108 103.71C318.1 105.633 317.18 107.182 313.84 110.331L310.832 113.323V113.448H318.365V116H306.589ZM327.928 99.0276V116H324.862V102.003H324.763L320.793 104.539V101.746L325.003 99.0276H327.928ZM349.096 96.9227V112.528H346.494V105.467H340.958V103.403H346.494V101.481H340.958V99.4254H346.494V96.9227H349.096ZM332.571 109.644V98.3232H335.148V107.489C337.85 107.464 340.394 107.298 343.229 106.785L343.485 108.906C340.229 109.511 337.369 109.635 334.229 109.644H332.571ZM335.165 117.674V111.144H337.792V115.561H349.618V117.674H335.165ZM364.752 116.323C360.658 116.315 358.221 113.091 358.23 107.53C358.23 101.986 360.683 98.7956 364.752 98.7956C368.812 98.7956 371.274 101.994 371.274 107.53C371.265 113.108 368.837 116.323 364.752 116.323ZM361.304 107.53C361.304 111.608 362.622 113.738 364.752 113.738C366.873 113.738 368.191 111.608 368.191 107.53C368.183 103.478 366.865 101.34 364.752 101.34C362.63 101.34 361.312 103.478 361.304 107.53ZM380.71 99.0276V116H377.643V102.003H377.544L373.574 104.539V101.746L377.784 99.0276H380.71ZM401.902 96.9227V109.262H399.283V108.417H395.314V106.818H399.283V96.9227H401.902ZM384.101 104.555C388.203 104.564 393.325 104.53 397.874 104.075L398.015 105.715C396.076 105.981 394.087 106.138 392.131 106.246V109.304H389.546V106.345C387.731 106.395 385.982 106.395 384.391 106.387L384.101 104.555ZM385.618 100.436C385.609 98.5138 387.731 97.2541 390.946 97.2541C394.104 97.2541 396.242 98.5138 396.258 100.436C396.242 102.409 394.104 103.61 390.946 103.602C387.731 103.61 385.609 102.409 385.618 100.436ZM387.209 111.715V109.934H401.902V114.691H389.852V116.05H402.466V117.898H387.292V112.983H399.308V111.715H387.209ZM388.079 100.436C388.062 101.331 389.181 101.878 390.946 101.878C392.695 101.878 393.814 101.331 393.814 100.436C393.814 99.5414 392.695 98.9779 390.946 98.9779C389.181 98.9779 388.062 99.5414 388.079 100.436ZM411.284 116L411.276 113.787L417.268 108.011C418.983 106.296 419.878 105.285 419.887 103.867C419.878 102.276 418.627 101.282 416.961 101.282C415.221 101.282 414.094 102.376 414.102 104.099H411.201C411.185 100.884 413.596 98.7956 417.003 98.7956C420.458 98.7956 422.795 100.867 422.804 103.71C422.795 105.633 421.875 107.182 418.536 110.331L415.527 113.323V113.448H423.061V116H411.284ZM432.624 99.0276V116H429.557V102.003H429.458L425.488 104.539V101.746L429.698 99.0276H432.624ZM442.056 97.5773C445.264 97.5856 447.65 99.5746 447.659 102.367C447.65 105.16 445.264 107.133 442.056 107.141C438.816 107.133 436.421 105.16 436.429 102.367C436.421 99.5746 438.816 97.5856 442.056 97.5773ZM438.965 102.367C438.949 104 440.266 105.028 442.056 105.028C443.83 105.028 445.131 104 445.131 102.367C445.131 100.751 443.83 99.7238 442.056 99.732C440.266 99.7238 438.949 100.751 438.965 102.367ZM439.62 110.555V108.525H453.684V114.061H442.222V115.76H454.322V117.823H439.686V112.138H451.09V110.555H439.62ZM451.073 107.597V96.9061H453.684V107.597H451.073Z" fill="white"/>
<defs>
<clipPath id="clip0_541_17">
<rect width="111" height="128" fill="white"/>
</clipPath>
</defs>
</svg>
