<svg width="432" height="128" viewBox="0 0 432 128" fill="none" xmlns="http://www.w3.org/2000/svg">
<g clip-path="url(#clip0_3_4)">
<path d="M416.64 128H15.136C11.1243 127.992 7.27929 126.394 4.44257 123.557C1.60585 120.721 0.00845465 116.876 0 112.864L0 15.136C0 11.1217 1.59468 7.27178 4.43323 4.43323C7.27178 1.59468 11.1217 8.69722e-08 15.136 8.69722e-08H416.64C420.675 -0.000429027 424.548 1.58707 427.423 4.41936C430.297 7.25165 431.941 11.1012 432 15.136V112.864C431.933 116.896 430.286 120.741 427.414 123.571C424.541 126.402 420.673 127.992 416.64 128Z" fill="#A6A6A6"/>
<path d="M428.8 112.864C428.8 116.115 427.509 119.232 425.21 121.53C422.912 123.829 419.795 125.12 416.544 125.12H15.136C11.8826 125.12 8.76192 123.83 6.45839 121.532C4.15486 119.235 2.85649 116.117 2.84802 112.864V15.104C2.85649 11.8506 4.15486 8.7333 6.45839 6.43577C8.76192 4.13824 11.8826 2.84801 15.136 2.84802H416.64C419.874 2.87335 422.967 4.17578 425.244 6.47149C427.522 8.76719 428.8 11.8701 428.8 15.104V112.864Z" fill="black"/>
<path d="M129.792 80.832L133.824 70.656H145.44L139.936 55.232L146.816 37.792L166.56 90.208H152L148.8 80.832H129.792Z" fill="white"/>
<path d="M117.376 90.208L138.528 37.792H124.512L110.048 71.68L99.776 37.792H88.992L77.952 71.68L70.176 56.224L63.136 77.92L70.4 90.208H84.192L94.176 59.84L103.776 90.208H117.376Z" fill="#5A0FC8"/>
<path d="M40.64 72.224H49.28C51.6363 72.2631 53.986 71.9613 56.256 71.328L58.496 64.448L64.736 45.248C64.2567 44.4863 63.7105 43.7688 63.104 43.104C61.2849 41.2567 59.0872 39.8253 56.6622 38.9083C54.2371 37.9913 51.6422 37.6105 49.056 37.792H27.36V90.208H40.64V72.224ZM52.064 49.824C52.7048 50.4949 53.2025 51.289 53.5271 52.1581C53.8516 53.0273 53.9962 53.9533 53.952 54.88C54.0538 56.7147 53.4596 58.5203 52.288 59.936C51.385 60.7278 50.3264 61.3219 49.18 61.6802C48.0337 62.0384 46.8251 62.1528 45.632 62.016H40.64V48H45.664C47.9587 47.7487 50.2597 48.416 52.064 49.856V49.824Z" fill="white"/>
<path d="M202.459 93L192.762 59.0552H200.453L206.138 82.8066H206.436L212.669 59.0552H219.298L225.53 82.8398H225.812L231.497 59.0552H239.188L229.492 93H222.613L216.116 70.6077H215.851L209.354 93H202.459ZM251.489 93.4972C243.682 93.4972 238.892 88.4586 238.892 80.3867C238.892 72.5304 243.748 67.2099 251.207 67.2099C257.886 67.2099 263.157 71.4365 263.157 80.1215V82.0608H245.754C245.754 85.9227 248.041 88.2928 251.605 88.2928C253.991 88.2928 255.682 87.2652 256.378 85.7569H262.975C261.98 90.4475 257.77 93.4972 251.489 93.4972ZM245.754 77.7182H256.61C256.577 74.6354 254.439 72.3978 251.339 72.3978C248.14 72.3978 245.919 74.8011 245.754 77.7182ZM267.664 93V59.0552H274.592V71.8177H274.791C275.753 69.7624 277.758 67.2099 282.051 67.2099C287.67 67.2099 292.394 71.5856 292.394 80.3039C292.394 88.8066 287.869 93.4144 282.034 93.4144C277.891 93.4144 275.786 91.0276 274.791 88.9392H274.493V93H267.664ZM274.443 80.2707C274.443 84.8453 276.432 87.8785 279.863 87.8785C283.394 87.8785 285.3 84.7624 285.3 80.2707C285.3 75.8122 283.427 72.7624 279.863 72.7624C276.399 72.7624 274.443 75.6796 274.443 80.2707ZM313.722 93H306.164L317.899 59.0552H326.966L338.7 93H331.142L328.59 85.1768H316.275L313.722 93ZM318.065 79.6575H326.783L322.557 66.7127H322.292L318.065 79.6575ZM342.358 102.547V67.5414H349.203V71.8177H349.518C350.463 69.7624 352.485 67.2099 356.761 67.2099C362.397 67.2099 367.104 71.5856 367.104 80.3039C367.104 88.8066 362.579 93.4144 356.761 93.4144C352.618 93.4144 350.496 91.0276 349.518 88.9392H349.303V102.547H342.358ZM349.153 80.2707C349.153 84.8453 351.126 87.8785 354.59 87.8785C358.104 87.8785 360.01 84.7624 360.01 80.2707C360.01 75.8122 358.137 72.7624 354.59 72.7624C351.093 72.7624 349.153 75.6796 349.153 80.2707ZM371.561 102.547V67.5414H378.406V71.8177H378.721C379.666 69.7624 381.688 67.2099 385.964 67.2099C391.6 67.2099 396.307 71.5856 396.307 80.3039C396.307 88.8066 391.782 93.4144 385.964 93.4144C381.821 93.4144 379.699 91.0276 378.721 88.9392H378.506V102.547H371.561ZM378.357 80.2707C378.357 84.8453 380.329 87.8785 383.793 87.8785C387.307 87.8785 389.213 84.7624 389.213 80.2707C389.213 75.8122 387.34 72.7624 383.793 72.7624C380.296 72.7624 378.357 75.6796 378.357 80.2707Z" fill="white"/>
<path d="M210.307 26.9061V37.7127H207.729V26.9061H210.307ZM192.688 35.6326C196.11 34.547 197.917 31.8287 197.917 29.0442V27.4199H200.61V29.0442C200.594 31.7541 202.384 34.2735 205.749 35.2762L204.464 37.2983C202.003 36.5442 200.246 34.9696 199.285 32.9558C198.323 35.1436 196.525 36.8757 193.997 37.6796L192.688 35.6326ZM196.276 40.7127V38.6823H210.34V44.1851H198.878V45.826H210.978V47.8978H196.343V42.2459H207.746V40.7127H196.276ZM231.563 26.9061V40.2238H229.085V34.4558H227.013V39.5028H224.576V27.3122H227.013V32.326H229.085V26.9061H231.563ZM213.331 31.2403V29.2017H217.333V27.0801H219.919V29.2017H223.88V31.2403H213.331ZM214.068 35.7652C214.06 33.5525 215.974 32.0939 218.626 32.0939C221.32 32.0939 223.226 33.5525 223.234 35.7652C223.226 37.953 221.32 39.4116 218.626 39.4116C215.974 39.4116 214.06 37.953 214.068 35.7652ZM216.397 35.7652C216.397 36.8508 217.3 37.5387 218.626 37.5387C219.96 37.5387 220.872 36.8508 220.872 35.7652C220.872 34.663 219.96 33.9834 218.626 33.9834C217.3 33.9834 216.397 34.663 216.397 35.7652ZM217.159 44.2762C217.143 41.8481 219.886 40.4724 224.411 40.4724C228.936 40.4724 231.662 41.8481 231.67 44.2762C231.662 46.6878 228.936 48.0635 224.411 48.0552C219.886 48.0635 217.143 46.6878 217.159 44.2762ZM219.753 44.2762C219.745 45.453 221.394 46.0829 224.411 46.0663C227.419 46.0829 229.043 45.453 229.06 44.2762C229.043 43.0497 227.419 42.4365 224.411 42.453C221.394 42.4365 219.745 43.0497 219.753 44.2762ZM250.78 26.9061V35.3425H254.045V37.489H250.78V48.0718H248.203V26.9061H250.78ZM234.073 32.2514V30.1464H239.078V27.2044H241.681V30.1464H246.57V32.2514H234.073ZM235.051 38.6077C235.034 35.6823 237.305 33.6188 240.396 33.6188C243.446 33.6188 245.708 35.6823 245.725 38.6077C245.708 41.5331 243.446 43.5884 240.396 43.5884C237.305 43.5884 235.034 41.5331 235.051 38.6077ZM237.545 38.6077C237.529 40.3481 238.739 41.4503 240.396 41.4337C242.029 41.4503 243.214 40.3481 243.23 38.6077C243.214 36.8923 242.029 35.7569 240.396 35.7569C238.739 35.7569 237.529 36.8923 237.545 38.6077ZM272.616 26.9061V48.0718H269.989V26.9061H272.616ZM255.072 42.2459C260.616 39.6105 263.185 36.0387 263.649 31.2155H256.149V29.1519H266.301C266.293 35.4586 263.848 40.8122 256.439 44.3343L255.072 42.2459Z" fill="white"/>
</g>
<defs>
<clipPath id="clip0_3_4">
<rect width="432" height="128" fill="white"/>
</clipPath>
</defs>
</svg>
