<svg width="432" height="128" viewBox="0 0 432 128" fill="none" xmlns="http://www.w3.org/2000/svg">
<path d="M416 128H16C7.04 128 0 120.96 0 112V16C0 7.04 7.04 0 16 0H416C424.96 0 432 7.04 432 16V112C432 120.64 424.96 128 416 128Z" fill="black"/>
<path d="M416 2.56C423.36 2.56 429.44 8.64 429.44 16V112C429.44 119.36 423.36 125.44 416 125.44H16C8.64 125.44 2.56 119.36 2.56 112V16C2.56 8.64 8.64 2.56 16 2.56H416ZM416 0H16C7.04 0 0 7.04 0 16V112C0 120.96 7.04 128 16 128H416C424.96 128 432 120.96 432 112V16C432 7.36 424.96 0 416 0Z" fill="#A7A6A6"/>
<path d="M217.92 69.7599C210.24 69.7599 204.16 75.5199 204.16 83.5199C204.16 91.1999 210.24 97.2799 217.92 97.2799C225.6 97.2799 231.68 91.5199 231.68 83.5199C231.68 75.1999 225.6 69.7599 217.92 69.7599ZM217.92 91.5199C213.76 91.5199 210.24 87.9999 210.24 83.1999C210.24 78.3999 213.76 74.8799 217.92 74.8799C222.08 74.8799 225.6 78.0799 225.6 83.1999C225.6 87.9999 222.08 91.5199 217.92 91.5199ZM188.16 69.7599C180.48 69.7599 174.4 75.5199 174.4 83.5199C174.4 91.1999 180.48 97.2799 188.16 97.2799C195.84 97.2799 201.92 91.5199 201.92 83.5199C201.92 75.1999 195.84 69.7599 188.16 69.7599ZM188.16 91.5199C184 91.5199 180.48 87.9999 180.48 83.1999C180.48 78.3999 184 74.8799 188.16 74.8799C192.32 74.8799 195.84 78.0799 195.84 83.1999C195.84 87.9999 192.32 91.5199 188.16 91.5199ZM152.64 73.9199V79.6799H166.4C166.08 82.8799 164.8 85.4399 163.2 87.0399C161.28 88.9599 158.08 91.1999 152.64 91.1999C144 91.1999 137.6 84.4799 137.6 75.8399C137.6 67.1999 144.32 60.4799 152.64 60.4799C157.12 60.4799 160.64 62.3999 163.2 64.6399L167.36 60.4799C163.84 57.2799 159.36 54.7199 152.96 54.7199C141.44 54.7199 131.52 64.3199 131.52 75.8399C131.52 87.3599 141.44 96.9599 152.96 96.9599C159.36 96.9599 163.84 95.0399 167.68 90.8799C171.52 87.0399 172.8 81.5999 172.8 77.4399C172.8 76.1599 172.8 74.8799 172.48 73.9199H152.64ZM297.92 78.3999C296.64 75.1999 293.44 69.7599 286.4 69.7599C279.36 69.7599 273.6 75.1999 273.6 83.5199C273.6 91.1999 279.36 97.2799 287.04 97.2799C293.12 97.2799 296.96 93.4399 298.24 91.1999L293.76 87.9999C292.16 90.2399 290.24 91.8399 287.04 91.8399C283.84 91.8399 281.92 90.5599 280.32 87.6799L298.56 79.9999L297.92 78.3999ZM279.36 82.8799C279.36 77.7599 283.52 74.8799 286.4 74.8799C288.64 74.8799 290.88 76.1599 291.52 77.7599L279.36 82.8799ZM264.32 95.9999H270.4V55.9999H264.32V95.9999ZM254.72 72.6399C253.12 71.0399 250.56 69.4399 247.36 69.4399C240.64 69.4399 234.24 75.5199 234.24 83.1999C234.24 90.8799 240.32 96.6399 247.36 96.6399C250.56 96.6399 253.12 95.0399 254.4 93.4399H254.72V95.3599C254.72 100.48 251.84 103.36 247.36 103.36C243.84 103.36 241.28 100.8 240.64 98.5599L235.52 100.8C237.12 104.32 240.96 108.8 247.68 108.8C254.72 108.8 260.48 104.64 260.48 94.7199V70.3999H254.72V72.6399ZM247.68 91.5199C243.52 91.5199 240 87.9999 240 83.1999C240 78.3999 243.52 74.8799 247.68 74.8799C251.84 74.8799 255.04 78.3999 255.04 83.1999C255.04 87.9999 251.84 91.5199 247.68 91.5199ZM325.76 55.9999H311.36V95.9999H317.44V80.9599H325.76C332.48 80.9599 338.88 76.1599 338.88 68.4799C338.88 60.7999 332.48 55.9999 325.76 55.9999ZM326.08 75.1999H317.44V61.4399H326.08C330.56 61.4399 333.12 65.2799 333.12 68.1599C332.8 71.6799 330.24 75.1999 326.08 75.1999ZM362.88 69.4399C358.4 69.4399 353.92 71.3599 352.32 75.5199L357.76 77.7599C359.04 75.5199 360.96 74.8799 363.2 74.8799C366.4 74.8799 369.28 76.7999 369.6 79.9999V80.3199C368.64 79.6799 366.08 78.7199 363.52 78.7199C357.76 78.7199 352 81.9199 352 87.6799C352 93.1199 356.8 96.6399 361.92 96.6399C366.08 96.6399 368 94.7199 369.6 92.7999H369.92V95.9999H375.68V80.6399C375.04 73.5999 369.6 69.4399 362.88 69.4399ZM362.24 91.5199C360.32 91.5199 357.44 90.5599 357.44 87.9999C357.44 84.7999 360.96 83.8399 363.84 83.8399C366.4 83.8399 367.68 84.4799 369.28 85.1199C368.64 88.9599 365.44 91.5199 362.24 91.5199ZM395.84 70.3999L389.12 87.6799H388.8L381.76 70.3999H375.36L385.92 94.7199L379.84 108.16H385.92L402.24 70.3999H395.84ZM342.08 95.9999H348.16V55.9999H342.08V95.9999Z" fill="white"/>
<path d="M33.28 24C32.32 25.28 32 26.56 32 28.8V99.2C32 101.12 32.64 102.72 33.6 103.68L33.92 104L73.6 64.32V64V63.68L33.28 24Z" fill="#5BC9F4"/>
<path d="M86.4 77.7599L73.28 64.6399V63.9999V63.6799L86.4 50.5599L86.72 50.8799L102.4 59.8399C106.88 62.3999 106.88 66.5599 102.4 69.1199L86.4 77.7599Z" fill="url(#paint0_linear_3_49)"/>
<path d="M86.72 77.44L73.28 64L33.28 104C34.88 105.6 37.12 105.6 40 104.32L86.72 77.44Z" fill="url(#paint1_linear_3_49)"/>
<path d="M86.72 50.56L40 24C37.12 22.4 34.88 22.72 33.28 24.32L73.28 64L86.72 50.56Z" fill="url(#paint2_linear_3_49)"/>
<path d="M134.4 36.4799C139.52 36.4799 143.04 36.1599 147.2 35.5199L147.52 37.7599C143.04 38.7199 139.52 38.7199 134.08 38.7199H131.84V19.8399H145.28V22.0799H134.4V36.4799ZM157.44 30.7199H152.64V46.0799H150.08V17.2799H152.64V28.4799H157.44V30.7199Z" fill="white" stroke="white" stroke-width="0.2" stroke-miterlimit="10"/>
<path d="M186.56 31.6799V33.9199H175.04V39.6799H172.48V33.9199H160.64V31.6799H186.56ZM163.52 23.6799C163.52 20.1599 167.36 17.9199 173.44 17.9199C179.52 17.9199 183.36 20.1599 183.36 23.6799C183.36 27.1999 179.52 29.4399 173.44 29.4399C167.68 29.4399 163.52 27.1999 163.52 23.6799ZM166.72 42.8799H184V45.1199H164.16V36.7999H166.72V42.8799ZM166.4 23.6799C166.4 25.9199 169.28 27.1999 173.76 27.1999C178.24 27.1999 181.12 25.9199 181.12 23.6799C181.12 21.4399 178.24 20.1599 173.76 20.1599C169.28 19.8399 166.4 21.4399 166.4 23.6799Z" fill="white" stroke="white" stroke-width="0.2" stroke-miterlimit="10"/>
<path d="M215.04 40V42.24H189.12V40H200.64V34.56H192.32V25.6H209.28V21.12H192.32V19.2H211.84V27.84H194.88V32.32H212.48V34.56H203.2V40H215.04Z" fill="white" stroke="white" stroke-width="0.2" stroke-miterlimit="10"/>
<path d="M245.12 39.68V41.92H219.2V39.68H245.12ZM241.92 32.96H222.08V19.84H241.6V22.08H224.64V31.04H241.6V32.96H241.92Z" fill="white" stroke="white" stroke-width="0.2" stroke-miterlimit="10"/>
<path d="M256.96 21.76H264V24H247.04V21.76H254.4V17.6H256.96V21.76ZM262.72 32.96C262.72 36.8 259.84 39.68 255.68 39.68C251.52 39.68 248.64 37.12 248.64 32.96C248.64 29.12 251.52 26.24 255.68 26.24C259.84 26.24 262.72 29.12 262.72 32.96ZM260.16 32.96C260.16 30.4 258.24 28.48 255.68 28.48C253.12 28.48 251.2 30.4 251.2 32.96C251.2 35.52 253.12 37.44 255.68 37.44C258.56 37.12 260.16 35.52 260.16 32.96ZM274.24 31.04H269.44V45.76H266.88V16.96H269.44V28.8H274.24V31.04Z" fill="white" stroke="white" stroke-width="0.2" stroke-miterlimit="10"/>
<path d="M290.24 20.1599C290.24 28.4799 286.4 35.8399 276.8 40.3199L275.52 38.0799C283.2 34.5599 287.04 28.7999 287.68 22.0799H276.8V19.8399H290.24V20.1599ZM298.88 17.2799V46.0799H296.32V17.2799H298.88Z" fill="white" stroke="white" stroke-width="0.2" stroke-miterlimit="10"/>
<defs>
<linearGradient id="paint0_linear_3_49" x1="99.4841" y1="64.0009" x2="22.1184" y2="64.0009" gradientUnits="userSpaceOnUse">
<stop stop-color="#FEE000"/>
<stop offset="0.1941" stop-color="#FCCF0B"/>
<stop offset="0.5469" stop-color="#FAB318"/>
<stop offset="0.8279" stop-color="#F9A21B"/>
<stop offset="1" stop-color="#F99B1C"/>
</linearGradient>
<linearGradient id="paint1_linear_3_49" x1="79.4067" y1="71.3379" x2="6.64028" y2="144.104" gradientUnits="userSpaceOnUse">
<stop stop-color="#EF4547"/>
<stop offset="1" stop-color="#C6186D"/>
</linearGradient>
<linearGradient id="paint2_linear_3_49" x1="6.31613" y1="-16.4291" x2="65.728" y2="42.9827" gradientUnits="userSpaceOnUse">
<stop stop-color="#279E6F"/>
<stop offset="0.3168" stop-color="#4DAB6D"/>
<stop offset="0.7398" stop-color="#6ABA6A"/>
<stop offset="1" stop-color="#74C169"/>
</linearGradient>
</defs>
</svg>
